<svg xmlns="http://www.w3.org/2000/svg" version="1.1" id="Layer_1" x="0px" y="0px" width="1000" height="936.22534" viewBox="0 0 1000 936.22534" enable-background="new 0 0 1000 911.93" xml:space="preserve">
<g id="g451"><path d="m 24.88999,562.18301 13.786002,-20.845 23.943004,6.495 -15.629025,-19.005 L 60.419994,508.211 37.216992,517.267 21.128975,498.288 22.508994,522.969 0,531.489 23.431987,537.65199 Z M 21.614989,470.27601 39.086998,452.295 61.416986,463.29499 49.749995,441.68102 66.787988,424.05499 42.309004,428.532 30.183978,406.76301 26.911993,431.21601 2.9909757,435.336 24.88898,445.875 Z m 14.401999,-90.934 20.591015,-14.17101 19.84999,14.888 -7.545002,-23.43199 20.387007,-14.043 -24.991011,-0.30701 -7.702007,-23.607 -8.005003,23.48 -24.197975,-0.564 19.490983,14.42799 z m 103.057002,-170.153 12.79301,21.256 1.84,-24.325 24.01899,-5.70502 -22.91899,-9.516 1.689,-24.76 -16.06303,18.77302 -22.33297,-9.61599 12.61099,20.71797 -16.04001,18.623 z M 435.668,63.615005 l 18.44299,-16.344011 21.10399,12.713005 -9.97897,-22.92 18.44599,-16.627 -24.558,2.202004 -9.31,-22.27999558 -5.425,23.60699358 -24.42702,2.431015 21.30602,12.865985 z M 83.617988,735.56101 88.556993,711.056 113.241,708.062 91.625993,696.29502 l 4.680993,-24.042 -18.11099,16.98198 -21.948023,-11.534 10.566001,22.381 -17.726992,16.396 23.96701,-3.06899 z M 200.74699,145.853 l 8.54301,23.35601 6.498,-23.71202 24.632,-0.81898 -20.77,-13.76302 6.41999,-24.09699 -19.338,15.24701 -20.07899,-13.45601 8.36098,22.71401 -19.20799,15.195 z m 72.748,-50.723008 3.86201,24.583008 10.97399,-22.051994 24.30299,3.888994 -17.75199,-17.471997 10.87,-22.404 L 283.703,73.003016 266.69,55.916014 270.68299,79.731998 248.837,91.139992 Z m 80.14101,-11.051989 14.91099,-19.566004 23.17399,8.391006 -14.118,-20.543002 14.94001,-19.822981 -23.738,6.804986 -13.43099,-19.978006 -0.71402,24.171988 -23.611,6.906021 23.43201,8.722978 z M 39.826973,628.127 l 6.012016,23.76402 9.565011,-23.22701 24.892993,1.791 -19.031007,-15.60302 9.258002,-22.74 -21.000998,13.30002 -19.440007,-15.602 6.087012,23.96698 L 15.577,626.466 Z M 67.580985,293.268 90.451006,283.113 107.05198,301.71101 104.26299,277.308 126.69701,267.27998 102.37099,262.31799 99.246003,237.60801 86.943991,259.06899 63.335988,253.92801 79.65299,271.911 Z m 712.869005,-150.53499 6.371,23.73599 8.85302,-23.224 24.78299,0.688 -19.21102,-15.44898 8.74902,-22.48302 -20.28102,13.30099 -19.16099,-15.42399 6.293,24.22201 L 755.946,141.634 Z m 38.80601,54.17799 23.941,5.62699 1.637,24.58001 12.996,-21.25601 24.30001,5.55201 -15.961,-18.85199 12.86799,-20.439 -22.41,9.18299 -15.93601,-18.722 1.63799,24.939 z M 707.57798,95.562999 718.32001,117.56299 722.514,93.185005 747.045,89.222013 725.278,77.710009 729.496,53.923013 712.13199,70.904996 690.31198,59.498011 701.132,82.032007 683.30498,99.325011 Z M 893.41,273.41801 890.39202,297.69401 907.3,279.37702 930.01401,289.506 917.863,267.89201 l 16.60201,-17.52099 -23.73602,4.78197 -12.177,-21.58899 -3.06898,24.81201 -24.35,4.70699 z M 603.726,71.469991 l 23.30101,-8.313978 14.735,19.773984 -0.64002,-24.942001 23.42901,-8.490992 -23.71201,-7.187003 -0.382,-24.171989 L 626.644,38.06301 603.18698,30.952012 618.098,51.056016 Z M 977.56599,518.52 l 1.68901,-24.63298 -16.32001,19.15899 -23.04699,-9.415 13.225,20.617 -15.80801,18.93001 24.12301,-6.24002 13.55399,20.87102 1.638,-24.65802 L 1000,527.34402 Z m -16.49699,105.079 24.19801,-1.12499 -20.339,-13.12101 6.191,-23.738 -19.569,15.60301 -20.84501,-13.605 9.08199,22.96898 -19.23698,15.39903 24.89098,-1.45801 9.385,22.99499 z m -47.91002,83.38902 4.70402,24.53098 10.79701,-22.281 23.91501,3.40202 -17.54702,-16.62602 10.769,-22.127 -22.22901,11.48499 -18.033,-17.29198 4.58,24.045 -21.61699,11.587 z M 304.85701,552.20701 c -1.92102,-1.51002 -25.24903,22.27998 -40.54402,38.829 -5.36999,5.75801 -8.87599,11.20501 -10.94799,13.763 0,0 -6.779,11.127 -10.33401,15.80899 -3.60398,4.654 -12.63698,17.95502 -16.549,23.686 -1.406,1.919 -4.96499,10.283 -11.896,18.93102 -3.45201,4.34897 -6.955,10.00097 -13.70799,18.67198 -9.055,11.58702 -15.86002,21.12901 -14.32702,22.38201 0.92002,0.66498 14.19701,-15.37501 28.41901,-32.64102 C 220.93,664.425 227.35,656.982 232.772,649.94902 c 2.66198,-3.37701 8.74899,-9.082 10.77098,-12.02401 3.452,-5.19002 7.28801,-9.13101 8.775,-10.35701 7.95301,-6.44599 12.429,-6.95799 14.93501,-10.59199 1.255,-1.81402 16.937,-25.501 22.64202,-35.09401 5.24099,-9.084 18.13299,-26.81101 14.962,-29.67499 m 664.49799,-149.767 -12.33001,21.76901 -24.349,-4.78302 16.907,17.90601 -11.845,21.357 L 960.14501,448.1 977.41199,465.927 974.394,441.373 996.31601,431.215 972.45,426.79101 Z M 909.346,338.16 l 20.079,14.22102 -7.59501,23.40498 19.87301,-14.78399 20.56701,14.27099 -7.85503,-23.532 19.59602,-14.11898 -24.09701,0.17997 -7.85298,-23.37999 -7.85202,23.65999 z M 520.10699,59.39602 541.33598,46.886013 559.57499,63.206005 554.228,38.956005 575.406,26.217001 550.848,23.712013 545.89099,0 536.17001,22.202011 511.73999,19.850003 530.233,36.552012 Z m 3.195,431.47298 c 2.303,6.776 10.84899,46.733 13.32799,54.99402 2.509,8.23598 5.14201,8.696 6.52401,11.86999 4.987,12.458 12.099,12.96698 15.75602,13.991 10.28199,3.12099 11.12698,16.907 17.69998,29.18598 6.03501,11.53502 11.81499,21.89602 17.21502,34.45501 5.42098,12.559 33.02199,80.60102 37.72898,91.01299 1.66301,3.73501 14.78699,3.73501 13.352,0 -3.324,-7.49597 -10.86899,-26.29599 -15.52401,-45.07197 -3.044,-12.17502 8.36401,-3.604 1.10001,-23.04701 -3.35098,-8.926 -9.72201,-17.88 -13.30298,-21.484 -3.68401,-3.55599 -7.21303,-19.05801 -10.07701,-25.914 -2.891,-6.75299 -1.43301,-7.08499 -7.52,-23.354 -4.55401,-11.81799 8.263,-7.85301 1.073,-26.16899 -4.68101,-11.89402 -28.29201,-54.943 -31.02799,-59.34101 -1.33103,-2.43101 -5.90802,-9.84902 -11.535,-18.70201 -5.26902,-8.312 -9.66901,-17.263 -12.20102,-21.15099 -4.912,-7.87801 -13.94099,-25.17101 -19.03,-32.30802 -5.04,-7.21299 -11.284,-23.07298 -13.96901,-20.41097 -2.48199,2.353 7.64903,26.143 11.79302,41.23297 4.42699,15.09002 1.20299,21.20302 -1.38301,25.55203 -2.45399,4.22198 -2.45399,7.03597 0,14.65898 M 683.66,614.10899 c 6.906,11.56101 8.77398,9.261 11.66199,9.38902 6.55001,0.17899 21.18401,15.90898 24.097,20.208 2.81501,4.34899 26.42401,27.85499 32.48702,33.61001 2.63299,2.50797 21.30599,32.68899 23.68698,30.54298 2.55801,-2.17599 -7.16001,-16.833 -8.59598,-20.082 -1.35401,-3.19698 -6.75302,-7.95301 -9.362,-14.80999 -2.43001,-6.70102 -13.55702,-23.63499 -17.162,-29.06001 -3.60702,-5.34598 -9.41401,-17.28899 -15.80802,-24.83699 -5.88501,-6.67502 -1.17799,-8.49101 -7.29098,-14.35101 -3.63403,-3.45099 -15.04201,-13.58 -17.62501,-15.72899 -2.404,-2.199 -11.767,-10.437 -17.16199,-15.14399 -5.295,-4.50102 -18.00702,-13.325 -17.6,-18.955 0.22898,-5.80701 -2.58301,-16.90801 -6.90501,-20.56401 -3.096,-2.61001 -12.203,-17.31801 -22.66501,-25.83601 -5.24299,-4.45 -16.47399,-16.06298 -25.145,-26.24399 -8.133,-9.643 -14.21999,-18.443 -16.089,-17.18801 -2.737,1.765 9.38901,18.748 10.693,20.79602 1.30201,1.91798 15.296,26.27098 16.70202,32.68999 1.43199,6.41999 27.67899,50.621 33.27899,64.35799 3.225,7.95402 21.23199,18.69901 28.803,31.20599 M 798.25501,656.826 c 0.91999,-1.099 -1.638,-4.322 -2.99102,-6.82699 C 793.78,647.51702 784.776,637.64301 783.13798,634.83 781.655,632.246 770.093,615.72099 766.00201,610.32502 758.73398,601.01201 765.386,597.586 761.57499,591.85502 760.013,589.29701 750.72799,578.118 739.93399,567.069 734.385,561.543 728.142,556.171 722.873,551.44 c -8.52099,-7.62299 -14.98901,-13.325 -16.037,-12.32999 -1.536,1.51 3.553,7.54802 5.70199,10.33399 2.15,2.662 5.57501,7.571 10.054,12.94399 7.34101,8.72301 0.56201,15.29602 7.54601,22.279 1.17499,1.10003 20.43801,22.71501 25.22301,26.70401 7.02999,6.24102 32.15098,36.118 33.91599,37.782 2.94299,2.73802 8.18501,8.72399 8.97801,7.673 M 400.39499,515.24399 c 1.38301,-3.01798 5.80701,-12.327 5.54901,-16.03598 0,-0.691 -1.585,-1.81701 -2.99101,-0.46001 -6.44598,6.39402 -19.62101,29.13402 -24.58,31.691 -11.307,5.52501 -16.21899,18.69799 -19.54599,23.86502 -2.40101,3.88899 -5.47502,10.10398 -10.818,17.932 -4.73202,6.80498 -10.053,16.882 -12.05,20.43798 -1.99301,3.68401 -2.70802,7.03301 0.949,7.03301 3.63099,0 0.81499,5.91099 -3.65702,12.38299 -2.482,3.83601 -8.74899,22.10099 -10.54199,27.03601 -2.378,6.14001 -2.01999,13.91599 -2.888,16.474 -0.845,2.457 -12.71199,27.804 -15.83401,33.43101 -1.97097,3.55597 -1.35699,4.96498 -2.12398,6.93198 -1.09901,2.456 0.258,3.12201 2.12398,1.35699 2.27703,-2.251 14.98901,-21.53697 18.90103,-23.89198 3.78697,-2.43099 7.31999,-5.95999 7.87999,-14.27199 0.562,-8.28801 5.983,-10.54002 9.977,-15.44903 4.21798,-4.81197 9.74399,-11.30698 12.73799,-18.03597 2.76299,-6.98001 6.34501,-1.68702 12.84,-12.09901 6.42,-10.48501 20.97501,-36.32101 24.276,-41.33499 3.17101,-5.01401 0.84499,-12.20001 0.43401,-18.18603 -0.153,-3.14799 0.307,-10.87297 2.146,-19.136 1.842,-7.33998 5.245,-14.80999 7.21599,-19.671 M 455.97801,317.746 c 5.39798,0 13.14597,-9.77 17.44597,-18.23801 4.34802,-9.258 6.57301,-14.45098 12.09901,-26.165 0.23102,-0.66598 -0.33299,-0.66598 -0.91999,-0.66598 -6.21802,0 -13.097,6.394 -17.49801,11.562 -5.16699,6.31799 -13.63201,18.31599 -14.96299,27.01398 -0.89802,4.60102 1.09901,6.49301 3.83601,6.49301 m 138.28099,8.28899 c 6.064,3.07001 13.66099,-10.33399 20.234,-22.61198 6.551,-12.35401 11.767,-27.702 6.26698,-29.59502 -6.26698,-2.50797 -14.16999,9.51601 -20.76998,21.84402 -6.471,12.305 -11.48601,27.627 -5.731,30.36298 M 358.03299,317.746 c 5.45,0 13.12299,-9.77 17.52301,-18.23801 4.37498,-9.258 6.67499,-14.45098 12.02099,-26.165 0.25799,-0.66598 -0.281,-0.66598 -0.81599,-0.66598 -6.26699,0 -13.10001,6.394 -17.497,11.562 -5.14202,6.31799 -13.68501,18.31599 -15.01601,27.01398 -0.89601,4.60102 1.33201,6.49301 3.785,6.49301 M 298,206.52799 c 42.489,2.02202 67.503,22.84101 67.503,45.17303 -0.0521,39.97998 -63.43499,46.78499 -63.43499,46.78499 -10.97401,55.404 -54.91702,76.53299 -85.33301,76.19999 -40.799,-0.35801 -40.18302,-33.35398 -38.777,-37.65099 1.713,-4.93801 4.195,-9.362 9.362,-9.362 5.08898,0 9.362,4.144 9.362,9.362 0,3.171 -1.563,6.13899 -4.27302,7.673 -5.37299,3.324 -4.34898,7.46998 -4.34898,7.46998 0,17.6 22.688,18.95303 28.674,18.95303 60.74999,0 53.792,-100.09203 107.356,-134.11202 2.45598,-1.663 4.374,0 2.89,1.66401 -16.728,20.97598 -23.047,54.738 -23.047,54.738 25.86198,0 42.92199,-24.55799 42.92199,-41.71999 0,-29.31301 -26.423,-41.49002 -48.85599,-41.49002 -62.567,0 -89.73401,43.71599 -89.73401,67.52901 0,23.892 15.044,32.48699 25.914,32.48699 15.19201,0 19.92498,-10.18201 18.059,-15.11699 -2.994,-7.75101 1.17801,-14.249 5.858,-14.249 1.81401,0 8.107,-0.28 8.107,10.66799 0,10.53901 -15.039,21.229 -31.59,21.229 -16.44801,0 -40.36201,-8.902 -40.36201,-35.019 0.001,-53.024 65.25303,-73.15501 103.74902,-71.21101 m 105.38599,64.79203 c -6.727,15.34797 -11.76299,26.29597 -18.00699,40.773 -0.538,1.38299 -1.04701,3.76099 0.30699,4.654 1.076,0.51299 2.43099,0.51299 3.171,0 8.03101,-3.86203 15.067,-13.17203 20.567,-23.81302 l 9.89701,-21.76799 h 13.89399 l -3.81299,8.16098 c -0.307,0.48602 -0.307,0.74102 0,0.48602 4.34901,-3.27502 8.95101,-8.16202 14.50298,-11.20501 2.17302,-1.02401 7.34002,-1.02401 6.779,2.55801 -0.23099,3.17099 -2.66198,5.62699 -4.09099,8.647 -0.76999,1.96699 -1.61399,4.42399 -1.35699,5.729 0.588,1.40598 2.19901,2.251 4.34901,0.61299 2.19898,-1.38 3.88899,-2.47901 5.855,-4.117 3.45498,-3.35001 7.82897,-6.52301 12.76498,-9.082 9.87401,-4.62901 23.25299,-7.56999 33.05201,-1.30501 -6.83399,15.297 -11.97299,26.75601 -18.574,41.23302 -1.17501,2.45601 -0.22901,3.249 0.59,3.86198 0.897,0.513 2.48199,0.77002 4.65498,-0.408 5.425,-2.30297 14.98901,-12.917 18.80302,-21.229 3.63099,-7.67498 6.90299,-15.29598 10.71598,-23.94298 H 531.693 l -3.938,8.39 0.56399,0.25799 c 3.83601,-3.48 13.78501,-11.48598 21.12501,-9.79899 4.09499,0.87098 6.06398,5.70499 5.758,9.313 4.62901,-3.376 9.43799,-7.41801 16.317,-9.107 9.87699,-2.40401 13.73598,4.42699 10.72,10.974 -3.863,9.056 -11.48301,26.782 -15.85702,35.88699 -0.53898,0.94901 -0.53898,2.96899 0,3.454 1.04701,0.81901 3.01402,0 3.85902,-0.48501 4.912,-4.19498 7.62298,-6.87998 11.43399,-12.33098 1.05,-9.53899 6.24302,-18.31301 13.40602,-25.68 7.59798,-8.49402 19.619,-15.04101 31.17997,-11.15202 4.06803,1.30501 6.80503,5.447 7.87801,9.51502 0.56201,2.14898 1.10001,3.27499 1.10001,5.75499 6.038,4.40001 13.942,-2.81298 17.191,-8.18499 0.894,-2.251 1.967,-4.629 2.50499,-6.31902 3.455,0.25803 10.28201,0 14.27501,0 l -17.85701,40.746 c -1.12298,2.40602 -1.37999,3.73401 -1.37999,5.63 0,1.45501 1.61099,1.73801 3.34998,1.45501 4.88701,-0.815 12.91802,-10.48499 16.93401,-18.62 4.55401,-10.12898 8.98001,-18.54499 13.45301,-28.674 h 14.37899 c -5.705,13.65801 -12.22698,28.136 -16.959,38.776 -1.07599,2.20201 -2.37898,4.37401 -1.66401,7.41801 0.58802,1.38299 2.531,1.09999 3.68402,0.59098 6.24299,-3.63498 16.98498,-15.55398 20.694,-22.94599 3.91399,-8.77399 6.80199,-15.29601 10.86898,-23.839 h 14.88903 l -3.60501,8.54299 c 5.523,-4.39999 11.457,-9.08198 18.59501,-10.25897 3.27499,-0.46001 7.369,-0.25501 9.28399,3.06899 2.176,3.81299 0.84499,7.855 -0.793,11.51198 -4.09101,9.28401 -8.798,19.39101 -12.91502,28.42002 -0.71797,2.22499 -0.97199,4.26999 0.56201,5.19298 2.22801,1.38002 12.56,-4.96499 17.827,-16.47499 4.55401,-10.07899 7.67601,-16.039 11.71801,-25.86099 h -7.59801 l 2.12401,-4.42402 h 7.698 l 10.92201,-23.76398 h 14.683 l -10.56302,23.76398 h 11.10102 l -2.12402,4.42402 H 785.649 c -6.34501,13.303 -11.61301,24.53099 -17.06301,37.143 -2.14699,4.26999 -4.346,11.485 -3.197,15.883 0.84499,2.43099 3.86202,3.02099 6.576,2.15001 8.466,-2.99503 14.19302,-10.15501 19.106,-17.80502 0.25402,-0.81901 4.68101,-0.22901 4.39702,0.332 -5.83001,11.46001 -18.38901,22.998 -30.33801,22.715 -3.57801,0 -7.49301,-2.22499 -9.61601,-5.24198 -1.04799,-1.61201 -1.63799,-2.99503 -2.22499,-4.88701 -0.768,-3.09599 -0.53599,-6.573 0,-9.87499 -6.49601,4.91298 -12.739,10.92498 -20.94999,12.61098 -3.60403,0.53799 -8.18501,-0.845 -9.02902,-4.70699 -0.56401,-2.99101 -0.257,-6.267 0.845,-8.951 5.16699,-11.25401 9.77099,-21.36001 14.68299,-33.14999 0.35901,-0.51202 0,-2.48101 -0.53798,-2.73602 -0.845,-0.74399 -3.24599,-0.74399 -5.42201,0.91999 -10.13201,7.59801 -15.26999,17.44502 -19.621,27.549 -3.096,6.80502 -6.41701,13.60902 -9.69099,20.231 h -14.50699 c 1.71598,-4.01598 4.14597,-9.538 6.03798,-13.91299 0,-0.307 -0.258,-0.307 -0.258,0 -5.95999,5.934 -13.707,12.68699 -21.281,14.75801 -3.01601,0.793 -6.088,-0.25401 -7.62099,-3.06902 -1.73801,-2.76299 -2.22499,-6.80499 -0.71801,-10.43598 0,-0.15301 -0.14999,-0.15301 -0.485,0 -5.39599,5.5 -10.64199,10.43598 -17.93198,12.892 -8.28602,2.58399 -15.67902,-3.24902 -10.46201,-15.27 1.40898,-3.24901 5.52499,-12.33101 10.054,-23.227 -3.75901,1.55999 -8.391,1.55999 -10.87001,0.81798 -0.28299,0 -0.28299,0 -0.28299,0.22901 -3.223,15.297 -12.278,29.23802 -26.26999,35.838 -6.776,3.301 -14.47802,4.195 -21.256,-0.51199 -3.30203,-2.124 -5.26902,-7.444 -5.47403,-12.02101 -7.08598,7.05999 -15.06498,16.063 -26.01298,14.504 -1.63799,-0.35899 -2.96901,-1.81701 -3.81301,-3.302 -2.45299,-4.143 -1.024,-8.54299 0.53801,-12.099 5.21999,-10.84399 9.54199,-21.05099 14.70899,-33.30399 0.86801,-1.71202 -1.45798,-2.96802 -3.17398,-2.175 -5.14201,2.50799 -8.39003,4.93799 -11.20501,9.36099 -1.55701,2.43102 -3.14501,5.14199 -4.34601,7.77701 -4.80898,10.461 -9.9,21.38298 -14.24901,31.923 H 519.85 c 6.576,-14.888 12.893,-29.41501 19.39101,-44.17601 0.66198,-1.33098 0.25398,-3.29801 -0.48602,-3.784 -1.33099,-0.639 -3.631,0.48599 -5.167,1.40601 -3.55601,2.37799 -6.65099,5.62701 -9.03,9.82199 -2.482,4.06801 -4.70699,8.133 -6.44499,12.61101 L 507.06099,327.285 h -14.452 c 1.35701,-3.17099 4.06801,-9.54199 5.731,-12.68699 0,-0.30701 -0.257,-0.56401 -0.257,-0.30701 -7.953,6.547 -18.08499,15.064 -25.47799,13.658 -2.45601,-0.28 -4.60301,-2.45599 -5.21599,-4.654 -0.48602,-2.76401 -0.28402,-5.269 0.32899,-7.59798 0,-0.35901 -0.32899,-0.35901 -0.61301,0 -6.318,5.95999 -11.995,10.92198 -19.92498,12.81299 -4.60401,1.07598 -8.827,-1.89201 -10.30903,-5.21601 -2.021,-3.81298 -2.55798,-9.82201 0.74103,-16.70501 1.91799,-4.39798 4.067,-8.97797 6.77798,-12.788 -1.638,0.81901 -4.85999,1.10001 -7.08499,0.81901 -1.86901,-0.28401 -3.83702,-1.68999 -4.785,-3.09599 -1.17502,-1.279 -1.40601,-3.73501 -1.40601,-5.373 0.23099,-0.30701 -0.58799,-0.30701 -1.15101,0 -4.39797,3.48001 -6.28998,7.649 -8.49198,12.25198 l -12.582,28.446 h -14.76101 l 5.44802,-12.04798 c 0.27998,-0.20501 0,-0.51202 -0.28103,-0.20501 -7.67198,6.75302 -16.85499,14.504 -24.30299,13.07102 -2.17201,-0.38502 -4.397,-2.509 -4.909,-4.632 -0.56401,-2.50601 -0.307,-5.29501 0,-7.69902 h -0.56401 c -6.03498,6.01302 -11.76299,10.948 -19.59199,12.61102 -4.44999,1.40598 -8.49499,-1.33 -10.22999,-5.16701 -2.17602,-5.525 -1.35602,-11.20199 0.587,-16.44701 5.64999,-14.80999 16.14199,-25.399 30.31199,-33.38201 9.00299,-5.13499 22.96999,-6.746 32.79,-1.63097 M 85.639977,500.30701 c 0,62.54201 16.575003,133.014 46.195003,190.798 53.48901,-49.90702 193.89301,-208.31801 210.008,-226.763 24.47903,-28.008 35.01901,-10.18099 48.19101,-25.861 7.06301,-8.59302 11.153,-11.894 14.249,-13.60601 5.04001,-2.99398 10.794,-10.155 13.65802,-12.30501 2.91598,-2.14898 9.41098,-10.742 14.42799,-15.09099 5.09,-4.29899 15.09101,-10.79401 25.21999,-19.416 10.07701,-8.645 27.21599,-28.77499 45.96701,-28.77499 22.25399,0 31.53798,15.091 33.48199,16.90798 1.66302,1.791 15.374,13.86301 17.573,16.189 2.482,2.68802 17.165,14.30101 25.09501,14.30101 7.90399,0 13.76,8.67201 17.98399,12.94099 9.385,8.62201 48.39401,49.52201 61.15801,58.24501 5.731,3.91399 11.101,3.22302 15.371,6.49801 4.42699,3.223 6.498,5.32 9.032,6.06199 2.40099,0.691 10.74201,-1.43298 20.46101,10.71901 4.52999,3.096 5.72998,3.604 5.72998,3.604 0,0 13.202,12.024 17.98101,20.48898 4.247,7.31703 102.90901,138.311 138.23101,185.197 C 898.396,641.04501 917.12099,572.797 917.12099,500.20601 917.12099,270.476 730.90301,84.489009 501.27601,84.489009 271.678,84.616149 85.639977,270.70699 85.639977,500.30701" id="path2" style="fill:#1d4397;stroke-width:1"></path><path d="m 887.45001,776.74201 7.97898,-20.797 H 903.617 V 785.261 h -5.34599 v -22.91899 h -0.12807 l -8.77402,22.91899 h -3.96399 l -8.775,-22.91899 h -0.12714 V 785.261 h -5.34701 v -29.31599 h 8.23702 z M 865.174,760.578 h -8.95501 v 24.684 H 850.514 v -24.684 h -8.95399 v -4.63299 H 865.174 Z" id="path38" style="fill:#1d4397;stroke-width:1"></path><g id="g427"><rect x="104.06055" y="828.71674" width="788.61798" height="5.8818498" id="rect40" style="display:inline;fill:#1d4397;stroke-width:0.999974"></rect><g id="g303" transform="matrix(0.99904193,0,0,0.99904193,10.86718,5.5437489)"><path d="m 138.79217,870.90358 h 8.98061 l 17.27567,44.69739 h -9.94037 l -2.33084,-6.4441 h -18.85242 l -2.33085,6.4441 h -10.00892 z m 10.62591,29.27268 -6.03277,-16.31592 -6.10133,16.31592 z" id="path85" style="fill:#1d4397;stroke-width:0.685543"></path><path d="m 185.72806,870.90358 h 9.94036 l 11.10579,30.91799 11.03724,-30.91799 h 9.94037 l -16.52158,44.69739 h -8.98061 z" id="path87" style="fill:#1d4397;stroke-width:0.685543"></path><path d="m 234.52327,869.39539 h 10.07748 v 10.00893 h -10.07748 z m 0.34277,14.32784 h 9.32339 v 31.87774 h -9.32339 z" id="path89" style="fill:#1d4397;stroke-width:0.685543"></path><path d="m 259.03876,913.88712 c -2.46795,-1.37109 -4.38747,-3.35917 -5.82712,-5.82712 -1.37108,-2.46795 -2.12518,-5.27868 -2.12518,-8.43218 0,-3.15349 0.68554,-5.96422 2.12518,-8.43217 1.37109,-2.46796 3.35917,-4.38748 5.82712,-5.82712 2.46795,-1.37107 5.21012,-2.12518 8.22651,-2.12518 1.85096,0 3.49628,0.27422 5.07302,0.89121 1.5082,0.61699 2.74217,1.37109 3.70193,2.2623 v -2.74218 h 9.25483 v 31.87773 h -9.32339 v -2.74216 c -0.8912,0.8912 -2.12517,1.6453 -3.63337,2.26228 -1.50819,0.61699 -3.22206,0.89121 -5.07302,0.89121 -3.01639,0.0685 -5.75856,-0.68554 -8.22651,-2.05662 z m 14.3964,-8.56929 c 1.37109,-1.43964 2.12518,-3.2906 2.12518,-5.62145 0,-2.33084 -0.68554,-4.25036 -2.12518,-5.62145 -1.37109,-1.43964 -3.22206,-2.12518 -5.34724,-2.12518 -2.19373,0 -3.97615,0.68554 -5.48434,2.12518 -1.43964,1.43964 -2.19373,3.29061 -2.19373,5.62145 0,2.33085 0.75409,4.25037 2.19373,5.62145 1.43964,1.43963 3.29061,2.12518 5.48434,2.12518 2.12518,0 3.9076,-0.68555 5.34724,-2.12518 z" id="path91" style="fill:#1d4397;stroke-width:0.685543"></path><path d="m 300.44388,913.81856 c -2.53651,-1.43964 -4.45603,-3.35916 -5.89567,-5.89567 -1.43964,-2.46795 -2.12518,-5.27868 -2.12518,-8.29507 0,-3.01638 0.68554,-5.82711 2.12518,-8.29507 1.43964,-2.46794 3.42771,-4.45601 5.89567,-5.89565 2.5365,-1.43964 5.34723,-2.12519 8.50073,-2.12519 3.35916,0 6.30699,0.7541 8.77495,2.33084 2.5365,1.57675 4.45602,3.77049 5.75855,6.58121 l -8.22651,4.18182 c -0.47988,-1.37109 -1.30253,-2.46796 -2.3994,-3.22206 -1.09687,-0.75409 -2.3994,-1.09686 -3.97615,-1.09686 -2.05662,0 -3.77049,0.68553 -5.14156,2.05662 -1.37109,1.37109 -1.98808,3.15349 -1.98808,5.41579 0,2.19373 0.68554,3.97615 1.98808,5.41579 1.37107,1.37109 3.08494,2.05663 5.14156,2.05663 1.5082,0 2.87928,-0.34278 3.97615,-1.09687 1.09687,-0.7541 1.91952,-1.78242 2.3994,-3.22206 l 8.22651,4.18182 c -1.30253,2.87928 -3.22205,5.07301 -5.75855,6.58121 -2.53651,1.57674 -5.41579,2.33085 -8.77495,2.33085 -3.1535,0.20565 -5.96423,-0.54844 -8.50073,-1.98808 z" id="path93" style="fill:#1d4397;stroke-width:0.685543"></path><path d="m 336.93657,913.81856 c -2.5365,-1.43964 -4.45602,-3.35916 -5.89566,-5.89567 -1.37109,-2.46795 -2.12518,-5.27868 -2.12518,-8.29507 0,-3.01638 0.68553,-5.82711 2.12518,-8.29507 1.37108,-2.46794 3.35916,-4.45601 5.89566,-5.89565 2.53651,-1.43964 5.34724,-2.12519 8.50073,-2.12519 3.15349,0 5.96422,0.68555 8.43218,2.12519 2.46795,1.43964 4.45603,3.35915 5.8271,5.89565 1.37109,2.46796 2.12519,5.27869 2.12519,8.29507 0,3.01639 -0.68555,5.82712 -2.12519,8.29507 -1.37107,2.46796 -3.35915,4.45603 -5.8271,5.89567 -2.46796,1.43964 -5.27869,2.12518 -8.43218,2.12518 -3.15349,0.0685 -6.03277,-0.68554 -8.50073,-2.12518 z m 13.6423,-8.77495 c 1.30253,-1.37109 1.91952,-3.15349 1.91952,-5.41579 0,-2.19373 -0.61699,-3.97614 -1.91952,-5.41578 -1.30253,-1.37108 -3.01639,-2.05663 -5.14157,-2.05663 -2.12518,0 -3.83904,0.68555 -5.14156,2.05663 -1.30254,1.37108 -1.98808,3.1535 -1.98808,5.41578 0,2.19375 0.68554,3.97615 1.98808,5.41579 1.30252,1.37109 3.01638,2.05663 5.14156,2.05663 2.12518,0 3.83904,-0.68554 5.14157,-2.05663 z" id="path95" style="fill:#1d4397;stroke-width:0.685543"></path><path d="m 369.17935,883.72323 h 9.39194 v 2.81073 c 2.05662,-2.12518 4.66168,-3.22205 7.88374,-3.22205 1.6453,0 3.15349,0.34277 4.45603,0.95976 1.30252,0.68555 2.39939,1.57674 3.22204,2.74217 1.09687,-1.09686 2.46796,-1.98807 4.11326,-2.74217 1.64531,-0.68554 3.49626,-1.02832 5.5529,-1.02832 3.56482,0 6.37554,1.09687 8.43216,3.22206 2.1252,2.12518 3.15351,5.21012 3.15351,9.18627 v 19.88073 h -9.32338 v -18.02977 c 0,-1.71386 -0.41133,-3.01638 -1.16542,-3.90759 -0.75411,-0.89121 -1.91952,-1.37109 -3.35917,-1.37109 -1.37108,0 -2.46795,0.47988 -3.2906,1.37109 -0.82265,0.95976 -1.30253,2.2623 -1.30253,3.90759 v 18.09833 h -9.32338 v -18.09833 c 0,-1.71386 -0.41133,-3.01638 -1.16542,-3.90759 -0.7541,-0.89121 -1.91952,-1.37109 -3.35916,-1.37109 -1.37109,0 -2.46796,0.47988 -3.35916,1.37109 -0.89121,0.95976 -1.30253,2.2623 -1.30253,3.90759 v 18.09833 h -9.32338 v -31.87774 z" id="path97" style="fill:#1d4397;stroke-width:0.685543"></path><path d="m 434.33443,912.92735 c -3.42772,-1.98807 -6.03278,-4.73025 -7.9523,-8.22651 -1.91952,-3.49627 -2.87928,-7.26675 -2.87928,-11.44857 0,-4.1818 0.95976,-8.02084 2.87928,-11.44856 1.91952,-3.42771 4.59314,-6.23843 7.9523,-8.2265 3.42771,-1.98808 7.19819,-3.01639 11.44856,-3.01639 4.52458,0 8.56928,1.16542 12.06555,3.42771 3.49627,2.26229 6.10133,5.41579 7.81519,9.32338 l -8.22652,4.59314 c -0.95976,-2.53652 -2.46795,-4.52458 -4.45603,-5.96422 -1.98807,-1.37109 -4.38746,-2.12519 -7.12964,-2.12519 -2.46795,0 -4.66168,0.54843 -6.5812,1.71386 -1.91952,1.16542 -3.42772,2.74217 -4.52458,4.79879 -1.09687,2.05664 -1.57675,4.31893 -1.57675,6.92398 0,2.53651 0.54843,4.86736 1.57675,6.92399 1.09686,2.05662 2.5365,3.63338 4.52458,4.7988 1.91952,1.16542 4.11325,1.71385 6.5812,1.71385 2.74218,0 5.14157,-0.68554 7.12964,-2.12518 1.98808,-1.37109 3.49627,-3.35916 4.45603,-5.96422 l 8.22652,4.59313 c -1.71386,3.97615 -4.31892,7.06109 -7.81519,9.32339 -3.49627,2.26229 -7.54097,3.42771 -12.06555,3.42771 -4.25037,0.0685 -8.02085,-0.95976 -11.44856,-3.01639 z" id="path99" style="fill:#1d4397;stroke-width:0.685543"></path><path d="m 473.45464,870.90358 h 15.90459 c 3.97615,0 7.12964,1.09688 9.46049,3.29061 2.33085,2.19373 3.49626,5.07302 3.49626,8.7064 0,1.50819 -0.34277,2.94782 -0.95976,4.25036 -0.68553,1.30253 -1.57674,2.33085 -2.67361,3.15349 1.91952,1.02831 3.42772,2.46795 4.59313,4.45603 1.16542,1.98807 1.78242,4.18182 1.78242,6.64977 0,2.67361 -0.617,5.07301 -1.91952,7.26675 -1.30254,2.12519 -3.08494,3.83904 -5.41579,5.07302 -2.33085,1.23397 -4.86735,1.85096 -7.67807,1.85096 h -16.59014 z m 15.42471,16.31592 c 1.30253,0 2.26229,-0.34276 2.94783,-1.02831 0.68554,-0.68554 1.02832,-1.6453 1.02832,-2.87928 0,-1.16542 -0.34278,-2.12518 -1.02832,-2.81072 -0.68554,-0.68555 -1.6453,-1.02832 -2.94783,-1.02832 h -5.82712 v 7.74663 z m 1.30253,19.26375 c 1.6453,0 2.94784,-0.47988 3.9076,-1.43964 0.95976,-0.95976 1.37107,-2.26229 1.37107,-3.90759 0,-1.6453 -0.47988,-2.87928 -1.37107,-3.83905 -0.95976,-0.95974 -2.2623,-1.43962 -3.9076,-1.43962 h -7.12965 v 10.6259 z" id="path101" style="fill:#1d4397;stroke-width:0.685543"></path><path d="m 517.65068,914.09277 c -2.2623,-1.30252 -4.0447,-3.01638 -5.34723,-5.27867 -1.30253,-2.26229 -1.91953,-4.73025 -1.91953,-7.40386 h 9.80327 c 0,1.50819 0.47988,2.81072 1.43964,3.90759 0.95976,1.09687 2.26228,1.57675 3.83904,1.57675 1.50819,0 2.74217,-0.41133 3.70193,-1.30253 0.8912,-0.89121 1.37108,-2.05663 1.37108,-3.63338 0,-1.71386 -0.61698,-3.01638 -1.85096,-3.83904 -1.23398,-0.89121 -3.22205,-1.6453 -5.89567,-2.3994 -3.56482,-0.95976 -6.37555,-2.46796 -8.50073,-4.52458 -2.05663,-2.05663 -3.15349,-4.73024 -3.15349,-7.9523 0,-2.3994 0.61698,-4.59313 1.7824,-6.51265 1.16543,-1.91952 2.81073,-3.42772 4.86736,-4.52458 2.05662,-1.09687 4.45602,-1.57675 7.12965,-1.57675 4.1818,0 7.54097,1.16542 10.00892,3.49627 2.46795,2.33085 3.70193,5.41579 3.70193,9.25483 h -9.11772 c -0.0685,-1.09688 -0.54843,-1.98807 -1.43964,-2.74218 -0.89121,-0.68554 -1.91952,-1.02831 -3.08494,-1.02831 -1.30253,0 -2.33085,0.34277 -3.08495,0.95976 -0.82264,0.68554 -1.16542,1.50819 -1.16542,2.60506 0,0.95976 0.27422,1.71386 0.89121,2.33085 0.54843,0.61698 1.37109,1.09686 2.3994,1.50819 1.02831,0.41133 2.67361,1.02832 4.86736,1.71385 3.83903,1.30254 6.64976,2.87929 8.56928,4.79881 1.85095,1.91952 2.81071,4.52458 2.81071,7.88374 0,2.87928 -0.61698,5.41579 -1.85095,7.67807 -1.23399,2.19375 -3.01639,3.9076 -5.21013,5.14157 -2.26229,1.23398 -4.79879,1.85097 -7.67808,1.85097 -2.94783,-0.0685 -5.55289,-0.75409 -7.88374,-1.98808 z" id="path103" style="fill:#1d4397;stroke-width:0.685543"></path><path d="m 574.64305,912.92735 c -3.42772,-1.98807 -6.03278,-4.73025 -7.9523,-8.22651 -1.91952,-3.49627 -2.87928,-7.26675 -2.87928,-11.44857 0,-4.1818 0.95976,-8.02084 2.87928,-11.44856 1.91952,-3.42771 4.59314,-6.23843 7.9523,-8.2265 3.42771,-1.98808 7.1982,-3.01639 11.44856,-3.01639 4.52458,0 8.56928,1.16542 12.06555,3.42771 3.49627,2.26229 6.10134,5.41579 7.81519,9.32338 l -8.22652,4.59314 c -0.95975,-2.53652 -2.46794,-4.52458 -4.45601,-5.96422 -1.98808,-1.37109 -4.38748,-2.12519 -7.12966,-2.12519 -2.46795,0 -4.66168,0.54843 -6.5812,1.71386 -1.91952,1.16542 -3.42772,2.74217 -4.52458,4.79879 -1.09687,2.05664 -1.57675,4.31893 -1.57675,6.92398 0,2.53651 0.54843,4.86736 1.57675,6.92399 1.09686,2.05662 2.5365,3.63338 4.52458,4.7988 1.91952,1.16542 4.11325,1.71385 6.5812,1.71385 2.74218,0 5.14158,-0.68554 7.12966,-2.12518 1.98807,-1.37109 3.49626,-3.35916 4.45601,-5.96422 l 8.22652,4.59313 c -1.71385,3.97615 -4.31892,7.06109 -7.81519,9.32339 -3.49627,2.26229 -7.54097,3.42771 -12.06555,3.42771 -4.25036,0.0685 -8.02085,-0.95976 -11.44856,-3.01639 z" id="path105" style="fill:#1d4397;stroke-width:0.685543"></path><path d="m 619.81459,913.81856 c -2.53651,-1.43964 -4.45603,-3.35916 -5.89566,-5.89567 -1.37109,-2.46795 -2.12519,-5.27868 -2.12519,-8.29507 0,-3.01638 0.68555,-5.82711 2.12519,-8.29507 1.37108,-2.46794 3.35915,-4.45601 5.89566,-5.89565 2.53652,-1.43964 5.34723,-2.12519 8.50073,-2.12519 3.1535,0 5.96422,0.68555 8.43217,2.12519 2.46796,1.43964 4.45603,3.35915 5.82712,5.89565 1.37109,2.46796 2.12518,5.27869 2.12518,8.29507 0,3.01639 -0.68554,5.82712 -2.12518,8.29507 -1.37109,2.46796 -3.35916,4.45603 -5.82712,5.89567 -2.46795,1.43964 -5.27867,2.12518 -8.43217,2.12518 -3.22205,0.0685 -6.03278,-0.68554 -8.50073,-2.12518 z m 13.57375,-8.77495 c 1.30253,-1.37109 1.91952,-3.15349 1.91952,-5.41579 0,-2.19373 -0.61699,-3.97614 -1.91952,-5.41578 -1.30253,-1.37108 -3.01638,-2.05663 -5.14158,-2.05663 -2.12517,0 -3.83903,0.68555 -5.14156,2.05663 -1.30254,1.37108 -1.98808,3.1535 -1.98808,5.41578 0,2.19375 0.68554,3.97615 1.98808,5.41579 1.30253,1.37109 3.01639,2.05663 5.14156,2.05663 2.1252,0 3.83905,-0.68554 5.14158,-2.05663 z" id="path107" style="fill:#1d4397;stroke-width:0.685543"></path><path d="m 651.94276,883.72323 h 9.39192 v 2.81073 c 2.05664,-2.12518 4.6617,-3.22205 7.88374,-3.22205 1.64532,0 3.15351,0.34277 4.45603,0.95976 1.30254,0.68555 2.3994,1.57674 3.22206,2.74217 1.09687,-1.09686 2.46795,-1.98807 4.11325,-2.74217 1.6453,-0.68554 3.49627,-1.02832 5.5529,-1.02832 3.56482,0 6.37555,1.09687 8.43217,3.22206 2.12518,2.12518 3.15349,5.21012 3.15349,9.18627 v 19.88073 h -9.32337 v -18.02977 c 0,-1.71386 -0.41133,-3.01638 -1.16543,-3.90759 -0.75409,-0.89121 -1.91951,-1.37109 -3.35915,-1.37109 -1.37109,0 -2.46795,0.47988 -3.29061,1.37109 -0.82265,0.95976 -1.30253,2.2623 -1.30253,3.90759 v 18.09833 h -9.32338 v -18.09833 c 0,-1.71386 -0.41132,-3.01638 -1.16543,-3.90759 -0.75409,-0.89121 -1.91952,-1.37109 -3.35915,-1.37109 -1.37108,0 -2.46795,0.47988 -3.35916,1.37109 -0.89121,0.95976 -1.30253,2.2623 -1.30253,3.90759 v 18.09833 h -9.32339 v -31.87774 z" id="path109" style="fill:#1d4397;stroke-width:0.685543"></path><path d="m 706.1202,883.72323 h 9.32337 v 2.74218 c 0.95977,-0.89121 2.19375,-1.64531 3.70194,-2.2623 1.5082,-0.61698 3.22205,-0.8912 5.07302,-0.8912 3.01638,0 5.75856,0.68555 8.2265,2.12519 2.46796,1.37107 4.38748,3.35915 5.82712,5.8271 1.37109,2.46795 2.12518,5.27868 2.12518,8.43218 0,3.1535 -0.68554,5.96422 -2.12518,8.43217 -1.37109,2.46796 -3.35916,4.38748 -5.82712,5.82712 -2.46794,1.37109 -5.21012,2.12518 -8.2265,2.12518 -1.85097,0 -3.56482,-0.27421 -5.07302,-0.89121 -1.50819,-0.61699 -2.74217,-1.37108 -3.63338,-2.26229 v 18.64676 h -9.39193 z m 22.62291,21.5946 c 1.43964,-1.43964 2.19373,-3.2906 2.19373,-5.62145 0,-2.33084 -0.75409,-4.25036 -2.19373,-5.62145 -1.43964,-1.43964 -3.29061,-2.12518 -5.48435,-2.12518 -2.19373,0 -3.97614,0.68554 -5.34723,2.12518 -1.37108,1.43964 -2.12518,3.29061 -2.12518,5.62145 0,2.33085 0.68554,4.25037 2.12518,5.62145 1.37109,1.43963 3.22206,2.12518 5.34723,2.12518 2.2623,0 4.04471,-0.68555 5.48435,-2.12518 z" id="path111" style="fill:#1d4397;stroke-width:0.685543"></path><path d="m 755.30433,913.88712 c -2.46796,-1.37109 -4.38748,-3.35917 -5.82712,-5.82712 -1.37109,-2.46795 -2.12518,-5.27868 -2.12518,-8.43218 0,-3.15349 0.68554,-5.96422 2.12518,-8.43217 1.37109,-2.46796 3.35916,-4.38748 5.82712,-5.82712 2.46795,-1.37107 5.21012,-2.12518 8.2265,-2.12518 1.85097,0 3.49627,0.27422 5.07302,0.89121 1.50819,0.61699 2.74217,1.37109 3.70193,2.2623 v -2.74218 h 9.32339 v 31.87773 h -9.32339 v -2.74216 c -0.8912,0.8912 -2.12518,1.6453 -3.63337,2.26228 -1.50819,0.61699 -3.22206,0.89121 -5.07302,0.89121 -3.08494,0.0685 -5.82711,-0.68554 -8.29506,-2.05662 z m 14.46495,-8.56929 c 1.37108,-1.43964 2.12518,-3.2906 2.12518,-5.62145 0,-2.33084 -0.68554,-4.25036 -2.12518,-5.62145 -1.37109,-1.43964 -3.22206,-2.12518 -5.34724,-2.12518 -2.19373,0 -3.97615,0.68554 -5.48434,2.12518 -1.43964,1.43964 -2.19373,3.29061 -2.19373,5.62145 0,2.33085 0.75409,4.25037 2.19373,5.62145 1.43964,1.43963 3.29061,2.12518 5.48434,2.12518 2.12518,0 3.9076,-0.68555 5.34724,-2.12518 z" id="path113-0" style="fill:#1d4397;stroke-width:0.685543"></path><path d="m 790.45172,883.72323 h 9.32338 v 2.33085 c 0.89121,-0.82265 1.98807,-1.50819 3.35916,-1.98807 1.37109,-0.47988 2.87928,-0.7541 4.59314,-0.7541 3.77048,0 6.85542,1.16543 9.25483,3.49626 2.33083,2.33085 3.56482,5.55291 3.56482,9.66616 v 19.12664 h -9.32339 v -16.7958 c 0,-4.45602 -1.78241,-6.64976 -5.41579,-6.64976 -1.91952,0 -3.42771,0.61698 -4.45602,1.85097 -1.02832,1.23397 -1.57675,2.81071 -1.57675,4.79879 v 16.7958 h -9.32338 z" id="path115-6" style="fill:#1d4397;stroke-width:0.685543"></path><path d="m 836.40248,909.7053 -11.65423,-25.98207 h 10.28314 l 6.37555,15.08194 6.44411,-15.08194 h 10.07747 l -21.32038,47.85088 h -10.07747 z" id="path117-6" style="fill:#1d4397;stroke-width:0.685543"></path></g></g></g></svg>